<?xml version="1.0" encoding="UTF-8" standalone="no"?>
<!DOCTYPE svg PUBLIC "-//W3C//DTD SVG 1.1//EN" "http://www.w3.org/Graphics/SVG/1.1/DTD/svg11.dtd">
<svg width="99" height="100" viewBox="0 0 99 100" version="1.1" xmlns="http://www.w3.org/2000/svg" xmlns:xlink="http://www.w3.org/1999/xlink" xml:space="preserve" xmlns:serif="http://www.serif.com/" style="fill-rule:evenodd;clip-rule:evenodd;stroke-linejoin:round;stroke-miterlimit:2;">
  <path d="M91.544,25.645c-1.775,10 -6.452,18.226 -13.872,25.484c3.065,0.645 6.614,-0.806 8.871,-2.903c-0.806,4.032 -2.097,7.903 -4.193,11.613c-3.549,6.451 -9.194,11.774 -15.322,15.484c-8.871,5.161 -18.871,6.613 -29.517,8.386c-7.096,1.13 -14.516,2.259 -19.032,7.098c-2.258,2.419 -3.871,5.806 -4.839,9.193c-8.709,-12.419 -15,-26.935 -13.387,-39.194c2.259,-17.258 20,-30.322 39.839,-38.225c20.484,-8.387 43.387,-11.291 58.226,-22.581c-1.774,5.645 -4.033,11.29 -7.097,16.29c-3.065,5.162 -6.935,9.839 -11.129,14.033c4.678,-0.323 8.064,-1.936 11.452,-4.678Z" style="fill:#f00;fill-rule:nonzero;"/>
</svg>
